# xmcd
#
# Track frame offsets: 
#        150
#        25300
#        43265
#        63015
#        79875
#        104097
#        118070
#        135062
#        153065
#        172797
#        191012
#        208932
#
# Disc length: 3029 seconds
#
# Revision: 2
# Processed by: cddbd v1.5.2PL0 Copyright (c) Steve Scherf et al.
# Submitted via: ExactAudioCopy v0.95a4
#
DISCID=9b0bd30c
DTITLE=Toby Keith - Shock'n Y'All
DYEAR=2003
DGENRE=Country*
TTITLE0=I Love This Bar
TTITLE1=Whiskey Girl
TTITLE2=American Soldier
TTITLE3=If I Was Jesus
TTITLE4=Time For Me To Ride
TTITLE5=Sweet
TTITLE6=Don't Leave, I Think I Love You
TTITLE7=Nights I Can't Remember, Friends I'll Never Forget
TTITLE8=Baddest Boots
TTITLE9=The Critic
TTITLE10=The Taliban Song (Live Version)
TTITLE11=Weed With Willie (Live Version)
EXTD=
EXTT0=
EXTT1=
EXTT2=
EXTT3=
EXTT4=
EXTT5=
EXTT6=
EXTT7=
EXTT8=
EXTT9=
EXTT10=
EXTT11=
PLAYORDER=
